<svg version="1" xmlns="http://www.w3.org/2000/svg" width="413.333" height="413.333" viewBox="0 0 310.000000 310.000000"><path d="M135.5 1c-1.6.5-6.8 1.6-11.5 2.5-47.6 9.1-89.4 41.8-110.1 86C8.2 101.9 5.4 110.7 1 131c-.7 3.6-1 12.4-.8 25.5.3 16.1.8 21.9 2.6 29.8 6.4 28.2 19.7 52.8 39.6 73.5 20.1 20.8 42.5 34.4 69.9 42.1 16 4.6 23.7 5.6 42.7 5.6 19 0 26.7-1 42.7-5.6 48.3-13.7 86.9-49.6 103.9-96.6 6.2-17 7.8-26.5 8.2-48.8.2-13.1-.1-21.9-.8-25.5-4.4-20.3-7.2-29.1-12.9-41.5-20.7-44.2-62.5-76.9-110.1-86-4.7-.9-10.1-2.1-12.1-2.6-4.4-1.1-34.2-1-38.4.1zm55 46c.6 1.9 1.9 5.2 2.8 7.2 1.6 3.4 1.7 11.7 1.7 95.9v92.2l-3.1 4.9-3.2 4.9-32-.3c-29.8-.3-32.1-.4-33.1-2.1-.6-1-1.9-2.8-2.9-4-1.6-1.9-1.7-7.5-1.5-97.3.3-88.8.4-95.3 2-97.1 1-1.1 2.1-3.4 2.4-5.1l.7-3.2 32.5.2 32.6.3 1.1 3.5z"/><path d="M148.6 112.7c-1.4 2.7-3.9 7.3-5.6 10.3-1.7 3-4.2 7.8-5.7 10.6l-2.6 5.1 11.1 10.7 11.1 10.8-3.2 4.3c-1.8 2.4-5.2 6.8-7.6 9.9-2.4 3.1-4.2 5.9-3.9 6.1.7.7 26.9-21.6 26.6-22.5-.2-.5-3.3-4.7-7-9.4-3.8-4.6-6.8-9-6.8-9.6 0-1 8.4-11.9 18.9-24.5 2.2-2.7 4.1-5.3 4.1-5.7 0-.5-6.1-.8-13.5-.8H151l-2.4 4.7z"/></svg>